# xmcd
#
# Track frame offsets:
#	150
#	14885
#	29352
#	40635
#	53180
#	68792
#	83677
#	94025
#	107537
#	120790
#
# Disc length: 1794 seconds
#
# Revision: 2
# Processed by: cddbd v1.5.1PL2 Copyright (c) Steve Scherf et al.
# Submitted via: audiograbber 1.81.03
#
DISCID=7207000a
DTITLE=George`Jones - Who's Gonna Fill Their Shoes
DYEAR=1985
DGENRE=Pop
TTITLE0=Who's Gonna Fill Their Shoes
TTITLE1=Just When
TTITLE2=The`One I Loved Back Then The Corvette Song
TTITLE3=If I Painted A Picture
TTITLE4=If You Can Touch Her At All
TTITLE5=Somebody Wants Me Out Of The Way
TTITLE6=A`Whole Lot Of Trouble For You
TTITLE7=If Only You'd Love Me Again
TTITLE8=Call The Wrecker For My Heart
TTITLE9=That's Good Thats Bad
EXTD=
EXTT0=
EXTT1=
EXTT2=
EXTT3=
EXTT4=
EXTT5=
EXTT6=
EXTT7=
EXTT8=
EXTT9=
PLAYORDER=
